<?xml version="1.0" encoding="UTF-8"?>
<svg xmlns="http://www.w3.org/2000/svg" version="1.1" viewBox="0 0 947 947">
  <defs>
    <style>
      .cls-1 {
        fill: #fff;
      }

      .cls-2 {
        display: none;
        fill: none;
        stroke: gray;
        stroke-dasharray: 40.8;
        stroke-miterlimit: 10;
        stroke-width: 10.9px;
      }

      .cls-3 {
        fill: navy;
      }
    </style>
  </defs>
  <!-- Generator: Adobe Illustrator 28.6.0, SVG Export Plug-In . SVG Version: 1.2.0 Build 709)  -->
  <g>
    <g id="Ebene_1">
      <g>
        <path class="cls-3" d="M822.1,532.9c0-225.1-182.7-407.9-407.9-407.9S6.4,307.8,6.4,532.9s182.7,407.9,407.9,407.9,407.9-182.7,407.9-407.9"/>
        <path class="cls-1" d="M702.6,363.9c0-65.9-53.5-119.4-119.4-119.4s-119.4,53.5-119.4,119.4,53.5,119.4,119.4,119.4,119.4-53.5,119.4-119.4"/>
        <path class="cls-3" d="M941.5,124.9c0-65.9-53.5-119.4-119.4-119.4s-119.4,53.5-119.4,119.4,53.5,119.4,119.4,119.4,119.4-53.4,119.4-119.4"/>
        <path class="cls-2" d="M883.9,294.4c37.9,74.4,57.7,156.7,57.7,240.2,0,292.1-237.1,529.2-529.2,529.2S-116.8,826.8-116.8,534.6,120.2,5.4,412.4,5.4s186.1,25,267,72.2"/>
      </g>
    </g>
  </g>
</svg>