<?xml version="1.0" encoding="UTF-8"?>
<svg xmlns="http://www.w3.org/2000/svg" version="1.1" xmlns:svg="http://www.w3.org/2000/svg" viewBox="0 0 190 190">
  <defs>
    <style>
      .cls-1 {
        fill: #00a7eb;
      }

      .cls-2 {
        fill: #e60012;
      }

      .cls-3 {
        fill: #ffe100;
      }

      .cls-4 {
        fill: #6eb92b;
      }
    </style>
  </defs>
  <!-- Generator: Adobe Illustrator 28.6.0, SVG Export Plug-In . SVG Version: 1.2.0 Build 709)  -->
  <g>
    <g id="body">
      <g id="g3512">
        <path id="path3324" class="cls-4" d="M1,107.9v-1s.2-1,.2-1l.2-1,.3-.9.4-.9.5-.9.6-.9.7-.9.8-.8.8-.8.9-.8,1-.8,1-.8,1.1-.7,1.2-.7,1.2-.7,1.3-.6,1.4-.6,1.4-.6,1.5-.5,1.5-.5,1.6-.5,1.6-.4,1.7-.4,1.7-.3,1.7-.3,1.8-.3,1.8-.2,1.8-.2h1.9c0-.1,1.9-.2,1.9-.2h1.9c20.7,0,37.5,8.5,37.5,19s-16.8,19-37.5,19S1,118.4,1,107.9Z"/>
        <path id="path3326" class="cls-3" d="M70.3,143.1v-1c0,0,.2-1,.2-1l.3-1,.3-1,.4-1,.5-.9.6-.9.7-.9.8-.9.9-.9.9-.8,1-.8,1.1-.8,1.2-.8,1.2-.7,1.3-.7,1.4-.7,1.4-.6,1.5-.6,1.5-.6,1.6-.5,1.6-.5,1.7-.4,1.7-.4,1.8-.4,1.8-.3,1.9-.3,1.9-.2,1.9-.2h2c0-.1,2-.2,2-.2h2c21.8,0,39.4,8.9,39.4,19.9s-17.7,19.9-39.4,19.9-39.4-8.9-39.4-19.9Z"/>
        <path id="path3328" class="cls-1" d="M86.5,99.3h1.8c0-.1,1.7-.3,1.7-.3l1.7-.3,1.7-.4,1.7-.4,1.6-.5,1.6-.6,1.6-.7,1.5-.7,1.5-.8,1.4-.9,1.4-.9,1.3-1,1.3-1.1,1.2-1.1,1.2-1.2,1.1-1.2,1.1-1.3,1-1.3,1-1.4.9-1.4.8-1.5.8-1.5.7-1.5.6-1.6.5-1.6.5-1.7.4-1.7.3-1.7.2-1.7v-1.8c.1,0,.2-1.8.2-1.8,0-19.7-16-35.6-35.6-35.6s-35.4,15.7-35.6,35.2c.5,0,.9,0,1.4,0,19.6,0,35.6,15.9,35.6,35.6v.4"/>
        <path id="path3330" class="cls-2" d="M155.7,134.5h1.7c0-.1,1.7-.3,1.7-.3l1.7-.3,1.6-.4,1.6-.4,1.6-.5,1.6-.6,1.5-.7,1.5-.7,1.4-.8,1.4-.9,1.3-.9,1.3-1,1.3-1,1.2-1.1,1.2-1.1,1.1-1.2,1.1-1.2,1-1.3.9-1.3.9-1.4.8-1.4.7-1.5.7-1.5.6-1.5.5-1.6.5-1.6.4-1.6.3-1.7.2-1.7v-1.7c.1,0,.2-1.7.2-1.7,0-19.1-15.5-34.7-34.7-34.7s-34.4,15.3-34.6,34.3c.5,0,.9,0,1.4,0,19.1,0,34.7,15.5,34.7,34.7v.4"/>
      </g>
    </g>
  </g>
</svg>